<?xml version="1.0" standalone="no"?>
<!DOCTYPE svg PUBLIC "-//W3C//DTD SVG 20010904//EN"
 "http://www.w3.org/TR/2001/REC-SVG-20010904/DTD/svg10.dtd">
<svg version="1.0" xmlns="http://www.w3.org/2000/svg"
 width="500.000000pt" height="500.000000pt" viewBox="0 0 500.000000 500.000000"
 preserveAspectRatio="xMidYMid meet">

<g transform="translate(0.000000,500.000000) scale(0.100000,-0.100000)"
fill="#000000" stroke="none">
<path d="M0 2500 l0 -2501 1172 3 1173 3 0 747 c0 410 -3 744 -7 741 -13 -7
-12 132 0 152 4 6 7 186 7 401 0 310 -2 391 -12 387 -7 -3 -13 -10 -13 -16 0
-6 -3 -7 -7 -4 -3 4 -15 -1 -26 -10 -10 -10 -22 -17 -26 -15 -3 1 -7 -2 -7 -8
-1 -5 -3 -12 -4 -15 -1 -3 -3 -110 -4 -237 l-1 -233 -75 -37 c-129 -64 -213
-82 -380 -83 -166 0 -229 13 -350 72 -105 51 -223 169 -273 273 -59 124 -71
186 -72 350 0 108 5 161 18 210 64 233 225 394 462 462 68 19 104 23 235 23
166 0 212 -9 333 -62 l57 -26 0 -116 c0 -64 4 -122 9 -130 12 -19 3 -41 -18
-41 -10 0 -40 45 -85 131 -38 71 -82 141 -98 154 -41 35 -100 48 -198 43 -73
-3 -94 -9 -148 -38 -153 -81 -225 -244 -239 -539 -17 -358 68 -600 239 -687
97 -49 248 -42 268 12 13 33 13 455 0 488 -10 28 -48 49 -117 66 -26 7 -43 17
-43 25 0 13 35 15 228 16 125 1 245 2 267 3 22 1 49 -2 60 -5 20 -7 20 -2 20
1265 l0 1271 -52 0 c-28 0 -50 -1 -47 -4 2 -2 -2 -11 -9 -19 -10 -13 -9 -14 2
-7 10 6 12 4 6 -5 -5 -9 -4 -11 4 -6 6 4 8 12 5 18 -5 7 -2 8 6 3 9 -6 11 -4
5 6 -7 11 -6 12 6 2 12 -10 18 -10 27 -1 13 13 13 11 16 -24 1 -13 7 -22 12
-21 6 1 11 -4 11 -12 0 -8 -5 -13 -11 -12 -5 1 -10 -11 -10 -28 0 -16 5 -29
10 -28 6 1 11 -4 11 -12 0 -8 -5 -13 -11 -12 -5 1 -10 -11 -10 -28 0 -16 5
-29 10 -28 6 1 11 -4 11 -12 0 -8 -5 -13 -11 -12 -5 1 -10 -11 -10 -28 0 -16
5 -29 10 -28 6 1 11 -4 11 -12 0 -8 -5 -13 -11 -12 -5 1 -10 -11 -10 -28 0
-16 5 -29 10 -28 6 1 11 -4 11 -12 0 -8 -5 -13 -11 -12 -5 1 -10 -11 -10 -28
0 -16 5 -29 10 -28 6 1 11 -4 11 -12 0 -8 -5 -13 -11 -12 -5 1 -10 -11 -10
-28 0 -16 5 -29 10 -28 6 1 11 -4 11 -12 0 -8 -5 -13 -11 -12 -5 1 -10 -11
-10 -28 0 -16 5 -29 10 -28 6 1 11 -4 11 -12 0 -8 -5 -13 -11 -12 -5 1 -10
-11 -10 -28 0 -16 5 -29 10 -28 6 1 11 -4 11 -12 0 -8 -5 -13 -11 -12 -5 1
-10 -11 -10 -28 0 -16 5 -29 10 -28 6 1 11 -4 11 -12 0 -8 -5 -13 -11 -12 -5
1 -10 -11 -10 -28 0 -16 5 -29 10 -28 6 1 11 -4 11 -12 0 -8 -5 -13 -11 -12
-5 1 -10 -11 -10 -28 0 -16 5 -29 10 -28 6 1 11 -4 11 -12 0 -8 -5 -13 -11
-12 -5 1 -10 -11 -10 -28 0 -16 5 -29 10 -28 6 1 11 -4 11 -12 0 -8 -5 -13
-11 -12 -5 1 -10 -11 -10 -28 0 -16 5 -29 10 -28 6 1 11 -4 11 -12 0 -8 -5
-13 -11 -12 -5 1 -10 -11 -10 -28 0 -16 5 -29 10 -28 6 1 11 -4 11 -12 0 -8
-5 -13 -11 -12 -5 1 -10 -11 -10 -28 0 -16 5 -29 10 -28 6 1 11 -4 11 -12 0
-8 -5 -13 -11 -12 -5 1 -10 -11 -10 -28 0 -16 5 -29 10 -28 6 1 11 -4 11 -12
0 -8 -5 -13 -11 -12 -5 1 -10 -11 -10 -28 0 -16 5 -29 10 -28 6 1 11 -4 11
-12 0 -8 -5 -13 -11 -12 -5 1 -10 -11 -10 -28 0 -16 5 -29 10 -28 6 1 11 -4
11 -12 0 -8 -5 -13 -11 -12 -5 1 -10 -11 -10 -28 0 -16 5 -29 10 -28 6 1 11
-4 11 -12 0 -8 -5 -13 -11 -12 -5 1 -10 -11 -10 -28 0 -16 5 -29 10 -28 6 1
11 -4 11 -12 0 -8 -5 -13 -11 -12 -5 1 -10 -11 -10 -28 0 -16 5 -29 10 -28 6
1 11 -4 11 -12 0 -8 -5 -13 -11 -12 -5 1 -10 -11 -10 -28 0 -16 5 -29 10 -28
6 1 11 -4 11 -12 0 -8 -5 -13 -11 -12 -5 1 -10 -11 -10 -28 0 -16 5 -29 10
-28 6 1 11 -4 11 -12 0 -8 -5 -13 -11 -12 -5 1 -10 -11 -10 -28 0 -16 5 -29
10 -28 6 1 11 -4 11 -12 0 -8 -5 -13 -11 -12 -5 1 -10 -11 -10 -28 0 -16 5
-29 10 -28 6 1 11 -4 11 -12 0 -8 -5 -13 -11 -12 -5 1 -10 -11 -10 -28 0 -16
5 -29 10 -28 6 1 11 -4 11 -12 0 -8 -5 -13 -11 -12 -5 1 -10 -11 -10 -28 0
-16 5 -29 10 -28 6 1 11 -4 11 -12 0 -8 -5 -13 -11 -12 -5 1 -10 -11 -10 -28
0 -16 5 -29 10 -28 6 1 11 -4 11 -12 0 -8 -5 -13 -11 -12 -5 1 -10 -11 -10
-28 0 -16 5 -29 10 -28 6 1 11 -4 11 -12 0 -8 -5 -13 -11 -12 -5 1 -10 -11
-10 -28 0 -16 5 -29 10 -28 6 1 11 -4 11 -12 0 -8 -5 -13 -11 -12 -6 1 -11 -7
-10 -19 1 -15 -5 -20 -20 -20 -31 2 -45 14 -41 36 2 11 -1 23 -7 26 -7 5 -8 2
-3 -6 6 -9 4 -11 -6 -5 -12 7 -12 6 -1 -7 9 -11 10 -18 2 -23 -6 -3 -7 -12 -3
-18 4 -7 0 -6 -10 2 -9 7 -14 18 -10 25 11 16 11 56 1 62 -4 3 -5 11 -1 17 11
17 11 57 1 63 -5 3 -5 11 0 17 10 14 10 47 -1 64 -4 6 -3 14 2 17 5 3 7 19 6
34 -1 18 3 29 11 29 7 0 10 -5 7 -10 -3 -6 -2 -7 4 -4 12 8 11 53 -1 64 -5 5
-6 2 -1 -6 6 -10 4 -12 -6 -6 -12 7 -12 6 -1 -7 9 -11 10 -18 2 -23 -11 -7
-12 -6 -14 33 -1 15 -5 32 -9 39 -4 6 -3 14 1 17 10 6 10 46 -1 63 -4 6 -3 14
1 17 10 6 10 46 -1 63 -4 6 -3 14 1 17 10 6 10 46 -1 63 -4 6 -3 14 1 17 10 6
10 46 -1 63 -4 6 -3 14 1 17 10 6 10 46 -1 63 -4 6 -3 14 1 17 10 6 10 46 -1
63 -4 6 -3 14 1 17 10 6 10 46 -1 62 -3 6 -3 14 0 18 11 10 11 56 1 62 -4 3
-5 11 -1 17 11 17 11 57 1 63 -4 3 -5 11 -1 17 11 17 11 57 1 63 -4 3 -5 11
-1 17 11 17 11 57 1 63 -4 3 -5 11 -1 17 11 17 11 57 1 63 -4 3 -5 11 -1 17
11 17 11 57 1 63 -4 3 -5 11 -1 17 11 17 11 57 1 63 -4 3 -5 11 -1 17 11 17
11 57 1 63 -4 3 -5 11 -1 17 11 17 11 57 1 63 -4 3 -5 11 -1 17 11 17 11 57 1
63 -4 3 -5 11 -1 17 11 17 11 57 1 63 -4 3 -5 11 -1 17 11 17 11 57 1 63 -4 3
-5 11 -1 17 11 17 11 57 1 63 -4 3 -5 11 -1 17 11 17 11 57 1 63 -4 3 -5 11
-1 17 11 17 11 57 1 63 -4 3 -5 11 -1 17 11 17 11 57 1 63 -4 3 -5 11 -1 17
11 17 11 57 1 63 -4 3 -5 11 -1 17 11 17 11 57 1 63 -4 3 -5 11 -1 17 11 17
11 57 1 63 -5 3 -4 12 3 20 10 12 -145 14 -1105 14 l-1116 0 0 -2500z m2315
-113 c1 -7 6 -11 11 -10 6 1 11 -4 11 -12 0 -8 -5 -13 -11 -12 -5 1 -10 -11
-10 -28 0 -16 5 -29 10 -28 6 1 11 -4 11 -12 0 -8 -5 -13 -11 -12 -5 1 -10
-11 -10 -28 0 -16 5 -29 10 -28 6 1 11 -4 11 -12 0 -8 -5 -13 -11 -12 -5 1
-10 -11 -10 -28 0 -16 5 -29 10 -28 6 1 11 -4 11 -12 0 -8 -5 -13 -11 -12 -5
1 -10 -11 -10 -28 0 -16 5 -29 10 -28 6 1 11 -4 11 -12 0 -8 -5 -13 -11 -12
-5 1 -10 -11 -10 -28 0 -16 5 -29 10 -28 6 1 11 -4 11 -12 0 -8 -5 -13 -11
-12 -5 1 -10 -11 -10 -28 0 -16 5 -29 10 -28 6 1 11 -4 11 -12 0 -8 -5 -13
-11 -12 -5 1 -10 -11 -10 -28 0 -16 5 -29 10 -28 6 1 11 -4 11 -12 0 -8 -5
-13 -11 -12 -5 1 -10 -11 -10 -28 0 -16 5 -29 10 -28 6 1 11 -4 11 -12 0 -8
-5 -13 -11 -12 -5 1 -10 -11 -10 -28 0 -21 4 -29 14 -27 12 3 11 0 -1 -15 -9
-10 -15 -30 -14 -44 1 -14 -4 -26 -10 -26 -6 0 -11 12 -10 26 1 14 -2 31 -7
38 -5 7 -5 14 2 18 6 3 8 11 4 16 -3 5 -10 7 -15 3 -5 -3 -6 -11 -2 -17 5 -8
2 -8 -9 1 -12 10 -18 10 -28 -2 -10 -13 -8 -15 10 -11 44 8 48 -90 5 -135 -23
-24 -30 -26 -68 -20 -55 11 -77 39 -77 101 0 42 3 49 19 49 17 0 20 -8 23 -52
3 -47 6 -54 31 -62 20 -7 30 -6 40 4 10 10 9 11 -3 5 -13 -8 -13 -7 0 9 17 22
21 64 7 73 -6 4 -7 1 -2 -7 5 -9 4 -11 -4 -6 -6 4 -8 13 -4 19 11 17 11 57 1
63 -4 3 -5 11 -1 17 11 17 11 57 1 63 -4 3 -5 11 -1 17 10 16 11 50 1 63 -4 6
2 20 15 32 22 21 22 25 22 252 0 128 3 234 7 237 5 2 5 10 1 16 -4 7 0 6 10
-2 9 -7 18 -11 18 -7 1 3 3 11 4 16 1 6 3 13 4 17 2 10 16 -7 16 -20z m-1026
-774 c6 -16 20 -38 29 -51 l18 -23 28 50 c21 40 33 51 52 51 23 0 24 -2 24
-70 0 -63 -2 -70 -20 -70 -17 0 -20 7 -20 43 l0 42 -26 -42 c-14 -24 -33 -43
-42 -43 -10 0 -29 20 -44 48 l-27 47 -1 -47 c0 -36 -4 -48 -15 -48 -12 0 -15
14 -15 70 0 67 1 70 24 70 16 0 27 -8 35 -27z m345 -43 c35 -66 36 -70 16 -70
-11 0 -23 7 -26 15 -4 10 -20 15 -49 15 -29 0 -45 -5 -49 -15 -5 -13 -36 -22
-36 -10 0 2 14 34 32 70 44 89 62 88 112 -5z m118 43 l3 -26 31 26 c18 15 44
27 59 27 l27 0 -34 -27 c-18 -15 -35 -28 -37 -30 -3 -2 13 -21 34 -43 38 -39
38 -40 14 -40 -15 0 -37 12 -54 30 -31 33 -45 31 -45 -6 0 -17 -5 -24 -20 -24
-18 0 -20 7 -20 70 0 63 2 70 19 70 14 0 21 -8 23 -27z m308 12 c0 -12 -13
-15 -55 -15 -30 0 -55 -4 -55 -10 0 -5 23 -10 50 -10 38 0 50 -4 50 -15 0 -11
-12 -15 -50 -15 -43 0 -50 -3 -50 -20 0 -18 7 -20 55 -20 30 0 55 -4 55 -10 0
-6 -30 -10 -70 -10 l-70 0 0 70 0 70 70 0 c56 0 70 -3 70 -15z m255 -94 c-1
-14 5 -34 14 -44 12 -15 13 -18 1 -15 -10 2 -14 -6 -14 -27 0 -16 5 -29 10
-28 6 1 11 -4 11 -12 0 -8 -5 -13 -11 -12 -5 1 -10 -11 -10 -28 0 -16 5 -29
10 -28 6 1 11 -4 11 -12 0 -8 -5 -13 -11 -12 -5 1 -10 -11 -10 -28 0 -16 5
-29 10 -28 6 1 11 -4 11 -12 0 -8 -5 -13 -11 -12 -5 1 -10 -11 -10 -28 0 -16
5 -29 10 -28 6 1 11 -4 11 -12 0 -8 -5 -13 -11 -12 -5 1 -10 -11 -10 -28 0
-16 5 -29 10 -28 6 1 11 -4 11 -12 0 -8 -5 -13 -11 -12 -5 1 -10 -11 -10 -28
0 -16 5 -29 10 -28 6 1 11 -4 11 -12 0 -8 -5 -13 -11 -12 -5 1 -10 -11 -10
-28 0 -16 5 -29 10 -28 6 1 11 -4 11 -12 0 -8 -5 -13 -11 -12 -5 1 -10 -11
-10 -28 0 -16 5 -29 10 -28 6 1 11 -4 11 -12 0 -8 -5 -13 -11 -12 -5 1 -10
-11 -10 -28 0 -16 5 -29 10 -28 6 1 11 -4 11 -12 0 -8 -5 -13 -11 -12 -5 1
-10 -11 -10 -28 0 -16 5 -29 10 -28 6 1 11 -4 11 -12 0 -8 -5 -13 -11 -12 -5
1 -10 -11 -10 -28 0 -16 5 -29 10 -28 6 1 11 -4 11 -12 0 -8 -5 -13 -11 -12
-5 1 -10 -11 -10 -28 0 -16 5 -29 10 -28 6 1 11 -4 11 -12 0 -8 -5 -13 -11
-12 -5 1 -10 -11 -10 -28 0 -16 5 -29 10 -28 6 1 11 -4 11 -12 0 -8 -5 -13
-11 -12 -5 1 -10 -11 -10 -28 0 -16 5 -29 10 -28 6 1 11 -4 11 -12 0 -8 -5
-13 -11 -12 -5 1 -10 -11 -10 -28 0 -16 5 -29 10 -28 6 1 11 -4 11 -12 0 -8
-5 -13 -11 -12 -5 1 -10 -11 -10 -28 0 -16 5 -29 10 -28 6 1 11 -4 11 -12 0
-8 -5 -13 -11 -12 -5 1 -10 -11 -10 -28 0 -16 5 -29 10 -28 6 1 11 -4 11 -12
0 -8 -5 -13 -11 -12 -5 1 -10 -11 -10 -28 0 -16 5 -29 10 -28 6 1 11 -4 11
-12 0 -8 -5 -13 -11 -12 -6 1 -10 -3 -9 -9 1 -6 -4 -11 -12 -11 -8 0 -13 3
-12 6 1 3 -2 7 -8 8 -5 0 -9 -2 -8 -6 1 -4 -14 -7 -32 -7 -21 0 -31 4 -27 11
10 15 10 55 0 61 -4 3 -5 11 -1 17 11 17 11 57 1 63 -4 3 -5 11 -1 17 11 17
11 57 1 63 -4 3 -5 11 -1 17 11 17 11 50 1 64 -5 6 -5 14 0 17 10 6 10 46 -1
63 -4 6 -3 14 1 17 10 6 10 46 -1 63 -4 6 -3 14 1 17 10 6 10 46 -1 63 -4 6
-3 14 1 17 10 6 10 46 -1 63 -4 6 -3 14 1 17 10 6 10 46 -1 63 -4 6 -3 14 1
17 10 6 10 46 -1 63 -4 6 -3 14 1 17 10 6 10 46 -1 63 -4 6 -3 14 1 17 10 6
10 46 -1 63 -4 6 -3 14 1 17 10 6 10 46 -1 63 -4 6 -3 14 1 17 10 6 10 46 -1
63 -4 6 -3 14 1 17 10 6 10 46 -1 63 -4 6 -3 14 1 17 10 6 10 46 -1 63 -4 6
-3 14 1 17 10 6 10 46 -1 63 -4 6 -3 14 1 17 10 6 10 46 0 62 -4 6 13 30 37
54 24 24 42 46 40 50 -2 4 2 7 9 7 8 0 12 -11 11 -26z"/>
<path d="M2296 2371 c-4 -5 -2 -12 3 -15 5 -4 12 -2 15 3 4 5 2 12 -3 15 -5 4
-12 2 -15 -3z"/>
<path d="M2269 2367 c-1 -4 -2 -110 -3 -235 -1 -158 -5 -233 -13 -243 -6 -8
-13 -18 -15 -24 -1 -5 -7 -9 -12 -7 -5 2 -5 -3 1 -10 6 -7 9 -21 8 -30 -2 -10
1 -20 6 -24 5 -3 7 -10 3 -15 -3 -5 -11 -6 -17 -2 -9 5 -9 3 -1 -8 6 -8 10
-22 9 -31 -2 -10 1 -20 6 -24 5 -3 7 -10 3 -15 -3 -5 -11 -6 -17 -2 -8 5 -8 2
0 -9 7 -8 9 -19 5 -24 -4 -4 1 -2 11 5 9 7 17 10 17 6 0 -4 6 -3 13 4 10 8 16
8 25 -1 8 -8 10 -7 9 3 -4 23 -18 40 -28 33 -5 -3 -6 -10 -3 -16 4 -7 2 -8 -5
-4 -6 4 -8 12 -5 18 4 6 3 8 -2 5 -5 -3 -10 10 -10 28 0 18 3 32 6 30 4 -2 7
2 7 10 0 8 -3 12 -7 10 -3 -2 -6 12 -6 30 0 18 4 31 8 29 4 -2 5 5 3 16 -3 13
0 18 7 14 7 -5 8 -2 3 6 -5 8 -4 11 2 7 11 -7 30 11 28 28 -1 17 -16 36 -24
31 -4 -3 -8 1 -8 9 0 8 4 12 8 10 8 -6 26 16 24 30 -1 17 -16 36 -24 31 -4 -3
-8 1 -8 9 0 8 4 12 8 10 6 -4 21 8 31 26 5 9 -23 39 -31 34 -4 -2 -8 2 -8 10
0 8 4 12 8 10 8 -6 26 16 24 30 -1 17 -16 36 -24 31 -4 -3 -8 1 -8 9 0 8 4 12
8 10 8 -6 26 16 24 30 -1 17 -16 36 -24 31 -4 -3 -8 1 -8 9 0 8 4 12 8 9 8 -5
22 13 25 33 2 12 -35 51 -37 40z m28 -42 c0 -6 -6 -12 -12 -12 -6 0 -12 6 -12
12 0 6 6 12 12 12 6 0 12 -6 12 -12z m0 -80 c0 -6 -6 -12 -12 -12 -6 0 -12 6
-12 12 0 6 6 12 12 12 6 0 12 -6 12 -12z m0 -80 c0 -6 -6 -12 -12 -12 -6 0
-12 6 -12 12 0 6 6 12 12 12 6 0 12 -6 12 -12z m0 -80 c0 -6 -6 -12 -12 -12
-6 0 -12 6 -12 12 0 6 6 12 12 12 6 0 12 -6 12 -12z m0 -80 c0 -6 -6 -12 -12
-12 -6 0 -12 6 -12 12 0 6 6 12 12 12 6 0 12 -6 12 -12z m0 -80 c0 -6 -6 -12
-12 -12 -6 0 -12 6 -12 12 0 6 6 12 12 12 6 0 12 -6 12 -12z m-33 -233 c3 -5
-1 -9 -9 -9 -8 0 -12 4 -9 9 3 4 7 8 9 8 2 0 6 -4 9 -8z"/>
<path d="M2296 2291 c-4 -5 -2 -12 3 -15 5 -4 12 -2 15 3 4 5 2 12 -3 15 -5 4
-12 2 -15 -3z"/>
<path d="M2296 2211 c-4 -5 -2 -12 3 -15 5 -4 12 -2 15 3 4 5 2 12 -3 15 -5 4
-12 2 -15 -3z"/>
<path d="M2296 2131 c-4 -5 -2 -12 3 -15 5 -4 12 -2 15 3 4 5 2 12 -3 15 -5 4
-12 2 -15 -3z"/>
<path d="M2296 2051 c-4 -5 -2 -12 3 -15 5 -4 12 -2 15 3 4 5 2 12 -3 15 -5 4
-12 2 -15 -3z"/>
<path d="M2296 1971 c-4 -5 -2 -12 3 -15 5 -4 12 -2 15 3 4 5 2 12 -3 15 -5 4
-12 2 -15 -3z"/>
<path d="M2285 1880 c-10 -11 -15 -20 -10 -20 4 0 3 -6 -2 -12 -8 -12 -10 -30
-3 -43 6 -12 6 -31 0 -40 -6 -9 -6 -18 -1 -42 0 -3 10 2 20 11 21 19 22 36 3
59 -10 11 -9 17 2 26 15 13 16 28 2 50 -6 9 -5 12 2 7 6 -3 13 -2 16 3 12 19
-12 20 -29 1z m12 -33 c0 -8 -6 -14 -14 -14 -9 0 -10 4 -2 14 6 7 12 13 14 13
1 0 2 -6 2 -13z m0 -80 c0 -8 -6 -14 -14 -14 -9 0 -10 4 -2 14 6 7 12 13 14
13 1 0 2 -6 2 -13z"/>
<path d="M2296 1811 c-4 -5 -2 -12 3 -15 5 -4 12 -2 15 3 4 5 2 12 -3 15 -5 4
-12 2 -15 -3z"/>
<path d="M2296 1731 c-4 -5 -2 -12 3 -15 5 -4 12 -2 15 3 4 5 2 12 -3 15 -5 4
-12 2 -15 -3z"/>
<path d="M2296 1651 c-4 -5 -2 -12 3 -15 5 -4 12 -2 15 3 4 5 2 12 -3 15 -5 4
-12 2 -15 -3z"/>
<path d="M1562 1585 c-16 -35 -16 -35 13 -35 28 0 30 5 12 38 l-13 23 -12 -26z"/>
<path d="M2269 1504 c-18 -19 -34 -38 -34 -42 0 -4 -4 -6 -9 -4 -5 2 -5 -3 1
-10 6 -7 9 -21 8 -30 -2 -10 1 -20 6 -24 5 -3 7 -10 3 -15 -3 -5 -11 -6 -17
-2 -9 5 -9 3 -1 -8 6 -8 10 -22 9 -31 -2 -10 1 -20 6 -24 5 -3 7 -10 3 -15 -3
-5 -11 -6 -17 -2 -9 5 -9 3 -1 -8 6 -8 10 -22 9 -31 -2 -10 1 -20 6 -24 5 -3
7 -10 3 -15 -3 -5 -11 -6 -17 -2 -9 5 -9 3 -1 -8 6 -8 10 -22 9 -31 -2 -10 1
-20 6 -24 5 -3 7 -10 3 -15 -3 -5 -11 -6 -17 -2 -9 5 -9 3 -1 -8 6 -8 10 -22
9 -31 -2 -10 1 -20 6 -24 5 -3 7 -10 3 -15 -3 -5 -11 -6 -17 -2 -9 5 -9 3 -1
-8 6 -8 10 -22 9 -31 -2 -10 1 -20 6 -24 5 -3 7 -10 3 -15 -3 -5 -11 -6 -17
-2 -9 5 -9 3 -1 -8 6 -8 10 -22 9 -31 -2 -10 1 -20 6 -24 5 -3 7 -10 3 -15 -3
-5 -11 -6 -17 -2 -9 5 -9 3 -1 -8 6 -8 10 -22 9 -31 -2 -10 1 -20 6 -24 5 -3
7 -10 3 -15 -3 -5 -11 -6 -17 -2 -9 5 -9 3 -1 -8 6 -8 10 -22 9 -31 -2 -10 1
-20 6 -24 5 -3 7 -10 3 -15 -3 -5 -11 -6 -17 -2 -9 5 -9 3 -1 -8 6 -8 10 -22
9 -31 -2 -10 1 -20 6 -24 5 -3 7 -10 3 -15 -3 -5 -11 -6 -17 -2 -9 5 -9 3 -1
-8 6 -8 10 -22 9 -31 -2 -10 1 -20 6 -24 5 -3 7 -10 3 -15 -3 -5 -11 -6 -17
-2 -9 5 -9 3 -1 -8 6 -8 10 -22 9 -31 -2 -10 1 -20 6 -24 5 -3 7 -10 3 -15 -3
-5 -11 -6 -17 -2 -9 5 -9 3 -1 -8 6 -8 10 -22 9 -31 -2 -10 1 -20 6 -24 5 -3
7 -10 3 -15 -3 -5 -11 -6 -17 -2 -9 5 -9 3 -1 -8 6 -8 10 -22 9 -31 -2 -10 1
-20 6 -24 5 -3 7 -10 3 -15 -3 -5 -11 -6 -17 -2 -9 5 -9 3 -1 -8 6 -8 10 -22
9 -31 -2 -10 1 -20 6 -24 5 -3 7 -10 3 -15 -3 -5 -11 -6 -17 -2 -9 5 -9 3 -1
-8 6 -8 10 -22 9 -31 -2 -10 1 -20 6 -24 5 -3 7 -10 3 -15 -3 -5 -11 -6 -17
-2 -9 5 -9 3 -1 -8 6 -8 10 -22 9 -31 -2 -10 1 -20 6 -24 5 -3 7 -10 3 -15 -3
-5 -10 -6 -16 -3 -7 5 -8 2 -2 -7 5 -8 9 -21 9 -29 1 -37 17 -42 45 -15 15 15
27 32 26 38 -3 21 -17 37 -27 31 -5 -3 -7 -10 -3 -15 3 -5 9 -7 13 -5 4 3 8
-1 8 -9 0 -8 -5 -13 -11 -12 -6 1 -10 -5 -8 -13 3 -12 1 -12 -9 -3 -14 14 -22
46 -10 38 4 -2 8 2 8 10 0 8 -3 12 -7 10 -3 -2 -6 12 -6 30 0 18 3 32 6 30 4
-2 7 2 7 10 0 8 -3 12 -7 10 -3 -2 -6 12 -6 30 0 18 3 32 6 30 4 -2 7 2 7 10
0 8 -3 12 -7 10 -3 -2 -6 12 -6 30 0 18 3 32 6 30 4 -2 7 2 7 10 0 8 -3 12 -7
10 -3 -2 -6 12 -6 30 0 18 3 32 6 30 4 -2 7 2 7 10 0 8 -3 12 -7 10 -3 -2 -6
12 -6 30 0 18 3 32 6 30 4 -2 7 2 7 10 0 8 -3 12 -7 10 -3 -2 -6 12 -6 30 0
18 3 32 6 30 4 -2 7 2 7 10 0 8 -3 12 -7 10 -3 -2 -6 12 -6 30 0 18 3 32 6 30
4 -2 7 2 7 10 0 8 -3 12 -7 10 -3 -2 -6 12 -6 30 0 18 3 32 6 30 4 -2 7 2 7
10 0 8 -3 12 -7 10 -3 -2 -6 12 -6 30 0 18 3 32 6 30 4 -2 7 2 7 10 0 8 -3 12
-7 10 -3 -2 -6 12 -6 30 0 18 3 32 6 30 4 -2 7 2 7 10 0 8 -3 12 -7 10 -3 -2
-6 12 -6 30 0 18 3 32 6 30 4 -2 7 2 7 10 0 8 -3 12 -7 10 -3 -2 -6 12 -6 30
0 18 3 32 6 30 4 -2 7 2 7 10 0 8 -3 12 -7 10 -3 -2 -6 12 -6 30 0 18 3 32 6
30 4 -2 7 2 7 10 0 8 -3 12 -7 10 -3 -2 -6 12 -6 30 0 18 3 32 6 30 4 -2 7 2
7 10 0 8 -3 12 -7 10 -3 -2 -6 12 -6 30 0 18 3 32 6 30 4 -2 7 2 7 10 0 8 -3
12 -7 10 -3 -2 -6 12 -6 30 0 18 3 32 6 30 4 -2 7 2 7 10 0 8 -3 12 -7 10 -3
-2 -6 12 -6 30 0 18 4 31 8 29 4 -2 5 5 3 16 -3 13 0 18 7 14 7 -5 8 -2 3 6
-5 8 -4 11 3 6 11 -6 25 9 28 32 3 17 2 16 -37 -24z m-3 -1461 c-10 -11 -19
-7 -22 10 -2 15 0 16 12 6 8 -6 12 -14 10 -16z"/>
<path d="M2285 1480 c-10 -11 -15 -20 -10 -20 4 0 3 -6 -2 -12 -8 -12 -10 -30
-3 -43 6 -12 6 -31 0 -40 -6 -9 -6 -28 0 -40 6 -12 6 -31 0 -40 -6 -9 -6 -28
0 -40 6 -12 6 -31 0 -40 -6 -9 -6 -28 0 -40 6 -12 6 -31 0 -40 -6 -9 -6 -28 0
-40 6 -12 6 -31 0 -40 -6 -9 -6 -28 0 -40 6 -12 6 -31 0 -40 -6 -9 -6 -28 0
-40 6 -12 6 -31 0 -40 -6 -9 -6 -28 0 -40 6 -12 6 -31 0 -40 -6 -9 -6 -28 0
-40 6 -12 6 -31 0 -40 -6 -9 -6 -28 0 -40 6 -12 6 -31 0 -40 -6 -9 -6 -28 0
-40 6 -12 6 -31 0 -40 -6 -9 -6 -28 0 -40 6 -12 6 -31 0 -40 -6 -9 -6 -28 0
-40 6 -12 6 -31 0 -40 -6 -9 -6 -28 0 -40 6 -12 6 -31 0 -40 -6 -9 -6 -28 0
-40 6 -12 6 -31 0 -40 -6 -9 -6 -28 0 -40 6 -12 6 -31 0 -40 -6 -9 -6 -18 -1
-42 0 -3 10 2 20 11 21 19 22 36 3 59 -10 11 -9 17 2 26 16 14 15 33 -2 54
-10 11 -9 17 2 26 16 14 15 33 -2 54 -10 11 -9 17 2 26 16 14 15 33 -2 54 -10
11 -9 17 2 26 16 14 15 33 -2 54 -10 11 -9 17 2 26 16 14 15 33 -2 54 -10 11
-9 17 2 26 16 14 15 33 -2 54 -10 11 -9 17 2 26 16 14 15 33 -2 54 -10 11 -9
17 2 26 16 14 15 33 -2 54 -10 11 -9 17 2 26 16 14 15 33 -2 54 -10 11 -9 17
2 26 16 14 15 33 -2 54 -10 11 -9 17 2 26 16 14 15 33 -2 54 -10 11 -9 17 2
26 16 14 15 33 -2 54 -10 11 -9 17 2 26 16 14 15 33 -2 54 -10 11 -9 17 2 26
16 14 15 33 -2 54 -10 11 -9 17 2 26 16 14 15 33 -2 54 -10 11 -9 17 2 26 15
13 16 28 2 50 -6 9 -5 12 2 7 6 -3 13 -2 16 3 12 19 -12 20 -29 1z m12 -33 c0
-8 -6 -14 -14 -14 -9 0 -10 4 -2 14 6 7 12 13 14 13 1 0 2 -6 2 -13z m0 -80
c0 -8 -6 -14 -14 -14 -9 0 -10 4 -2 14 6 7 12 13 14 13 1 0 2 -6 2 -13z m0
-80 c0 -8 -6 -14 -14 -14 -9 0 -10 4 -2 14 6 7 12 13 14 13 1 0 2 -6 2 -13z
m0 -80 c0 -8 -6 -14 -14 -14 -9 0 -10 4 -2 14 6 7 12 13 14 13 1 0 2 -6 2 -13z
m0 -80 c0 -8 -6 -14 -14 -14 -9 0 -10 4 -2 14 6 7 12 13 14 13 1 0 2 -6 2 -13z
m0 -80 c0 -8 -6 -14 -14 -14 -9 0 -10 4 -2 14 6 7 12 13 14 13 1 0 2 -6 2 -13z
m0 -80 c0 -8 -6 -14 -14 -14 -9 0 -10 4 -2 14 6 7 12 13 14 13 1 0 2 -6 2 -13z
m0 -80 c0 -8 -6 -14 -14 -14 -9 0 -10 4 -2 14 6 7 12 13 14 13 1 0 2 -6 2 -13z
m0 -80 c0 -8 -6 -14 -14 -14 -9 0 -10 4 -2 14 6 7 12 13 14 13 1 0 2 -6 2 -13z
m0 -80 c0 -8 -6 -14 -14 -14 -9 0 -10 4 -2 14 6 7 12 13 14 13 1 0 2 -6 2 -13z
m0 -80 c0 -8 -6 -14 -14 -14 -9 0 -10 4 -2 14 6 7 12 13 14 13 1 0 2 -6 2 -13z
m0 -80 c0 -8 -6 -14 -14 -14 -9 0 -10 4 -2 14 6 7 12 13 14 13 1 0 2 -6 2 -13z
m0 -80 c0 -8 -6 -14 -14 -14 -9 0 -10 4 -2 14 6 7 12 13 14 13 1 0 2 -6 2 -13z
m0 -80 c0 -8 -6 -14 -14 -14 -9 0 -10 4 -2 14 6 7 12 13 14 13 1 0 2 -6 2 -13z
m0 -80 c0 -8 -6 -14 -14 -14 -9 0 -10 4 -2 14 6 7 12 13 14 13 1 0 2 -6 2 -13z
m0 -80 c0 -8 -6 -14 -14 -14 -9 0 -10 4 -2 14 6 7 12 13 14 13 1 0 2 -6 2 -13z
m0 -80 c0 -8 -6 -14 -14 -14 -9 0 -10 4 -2 14 6 7 12 13 14 13 1 0 2 -6 2 -13z"/>
<path d="M2296 1411 c-4 -5 -2 -12 3 -15 5 -4 12 -2 15 3 4 5 2 12 -3 15 -5 4
-12 2 -15 -3z"/>
<path d="M2296 1331 c-4 -5 -2 -12 3 -15 5 -4 12 -2 15 3 4 5 2 12 -3 15 -5 4
-12 2 -15 -3z"/>
<path d="M2296 1251 c-4 -5 -2 -12 3 -15 5 -4 12 -2 15 3 4 5 2 12 -3 15 -5 4
-12 2 -15 -3z"/>
<path d="M2296 1171 c-4 -5 -2 -12 3 -15 5 -4 12 -2 15 3 4 5 2 12 -3 15 -5 4
-12 2 -15 -3z"/>
<path d="M2296 1091 c-4 -5 -2 -12 3 -15 5 -4 12 -2 15 3 4 5 2 12 -3 15 -5 4
-12 2 -15 -3z"/>
<path d="M2296 1011 c-4 -5 -2 -12 3 -15 5 -4 12 -2 15 3 4 5 2 12 -3 15 -5 4
-12 2 -15 -3z"/>
<path d="M2296 931 c-4 -5 -2 -12 3 -15 5 -4 12 -2 15 3 4 5 2 12 -3 15 -5 4
-12 2 -15 -3z"/>
<path d="M2296 851 c-4 -5 -2 -12 3 -15 5 -4 12 -2 15 3 4 5 2 12 -3 15 -5 4
-12 2 -15 -3z"/>
<path d="M2296 771 c-4 -5 -2 -12 3 -15 5 -4 12 -2 15 3 4 5 2 12 -3 15 -5 4
-12 2 -15 -3z"/>
<path d="M2296 691 c-4 -5 -2 -12 3 -15 5 -4 12 -2 15 3 4 5 2 12 -3 15 -5 4
-12 2 -15 -3z"/>
<path d="M2296 611 c-4 -5 -2 -12 3 -15 5 -4 12 -2 15 3 4 5 2 12 -3 15 -5 4
-12 2 -15 -3z"/>
<path d="M2296 531 c-4 -5 -2 -12 3 -15 5 -4 12 -2 15 3 4 5 2 12 -3 15 -5 4
-12 2 -15 -3z"/>
<path d="M2296 451 c-4 -5 -2 -12 3 -15 5 -4 12 -2 15 3 4 5 2 12 -3 15 -5 4
-12 2 -15 -3z"/>
<path d="M2296 371 c-4 -5 -2 -12 3 -15 5 -4 12 -2 15 3 4 5 2 12 -3 15 -5 4
-12 2 -15 -3z"/>
<path d="M2296 291 c-4 -5 -2 -12 3 -15 5 -4 12 -2 15 3 4 5 2 12 -3 15 -5 4
-12 2 -15 -3z"/>
<path d="M2296 211 c-4 -5 -2 -12 3 -15 5 -4 12 -2 15 3 4 5 2 12 -3 15 -5 4
-12 2 -15 -3z"/>
<path d="M2296 131 c-4 -5 -2 -12 3 -15 5 -4 12 -2 15 3 4 5 2 12 -3 15 -5 4
-12 2 -15 -3z"/>
<path d="M2296 51 c-4 -5 -2 -12 3 -15 5 -4 12 -2 15 3 4 5 2 12 -3 15 -5 4
-12 2 -15 -3z"/>
<path d="M2295 4970 c-4 -6 -10 -8 -15 -5 -4 3 -13 -2 -20 -10 -7 -8 -16 -13
-20 -10 -10 6 -8 -15 3 -32 8 -13 2 -17 -17 -14 -5 1 -5 -4 1 -11 6 -7 9 -21
8 -30 -2 -10 1 -20 6 -24 5 -3 7 -10 3 -15 -3 -5 -11 -6 -17 -2 -9 5 -9 3 -1
-8 6 -8 10 -22 9 -31 -2 -10 1 -20 6 -24 5 -3 7 -10 3 -15 -3 -5 -11 -6 -17
-2 -9 5 -9 3 -1 -8 6 -8 10 -22 9 -31 -2 -10 1 -20 6 -24 5 -3 7 -10 3 -15 -3
-5 -11 -6 -17 -2 -9 5 -9 3 -1 -8 6 -8 10 -22 9 -31 -2 -10 1 -20 6 -24 5 -3
7 -10 3 -15 -3 -5 -11 -6 -17 -2 -9 5 -9 3 -1 -8 6 -8 10 -22 9 -31 -2 -10 1
-20 6 -24 5 -3 7 -10 3 -15 -3 -5 -11 -6 -17 -2 -9 5 -9 3 -1 -8 6 -8 10 -22
9 -31 -2 -10 1 -20 6 -24 5 -3 7 -10 3 -15 -3 -5 -11 -6 -17 -2 -9 5 -9 3 -1
-8 6 -8 10 -22 9 -31 -2 -10 1 -20 6 -24 5 -3 7 -10 3 -15 -3 -5 -11 -6 -17
-2 -9 5 -9 3 -1 -8 6 -8 10 -22 9 -31 -2 -10 1 -20 6 -24 5 -3 7 -10 3 -15 -3
-5 -11 -6 -17 -2 -9 5 -9 3 -1 -8 6 -8 10 -22 9 -31 -2 -10 1 -20 6 -24 5 -3
7 -10 3 -15 -3 -5 -11 -6 -17 -2 -9 5 -9 3 -1 -8 6 -8 10 -22 9 -31 -2 -10 1
-20 6 -24 5 -3 7 -10 3 -15 -3 -5 -11 -6 -17 -2 -9 5 -9 3 -1 -8 6 -8 10 -22
9 -31 -2 -10 1 -20 6 -24 5 -3 7 -10 3 -15 -3 -5 -11 -6 -17 -2 -9 5 -9 3 -1
-8 6 -8 10 -22 9 -31 -2 -10 1 -20 6 -24 5 -3 7 -10 3 -15 -3 -5 -11 -6 -17
-2 -9 5 -9 3 -1 -8 6 -8 10 -22 9 -31 -2 -10 1 -20 6 -24 5 -3 7 -10 3 -15 -3
-5 -11 -6 -17 -2 -9 5 -9 3 -1 -8 6 -8 10 -22 9 -31 -2 -10 1 -20 6 -24 5 -3
7 -10 3 -15 -3 -5 -11 -6 -17 -2 -9 5 -9 3 -1 -8 6 -8 10 -22 9 -31 -2 -10 1
-20 6 -24 5 -3 7 -10 3 -15 -3 -5 -11 -6 -17 -2 -9 5 -9 3 -1 -8 6 -8 10 -22
9 -31 -2 -10 1 -20 6 -24 5 -3 7 -10 3 -15 -3 -5 -11 -6 -17 -2 -9 5 -9 3 -1
-8 6 -8 10 -22 9 -31 -2 -10 1 -20 6 -24 5 -3 7 -10 3 -15 -3 -5 -11 -6 -17
-2 -9 5 -9 3 -1 -8 6 -8 10 -22 9 -31 -2 -10 1 -20 6 -24 5 -3 7 -10 3 -15 -3
-5 -11 -6 -17 -2 -9 5 -9 3 -1 -8 6 -8 10 -22 9 -31 -2 -10 1 -20 6 -24 5 -3
7 -10 3 -15 -3 -5 -11 -6 -17 -2 -9 5 -9 3 -1 -8 6 -8 10 -22 9 -31 -2 -10 1
-20 6 -24 5 -3 7 -10 3 -15 -3 -5 -11 -6 -17 -2 -9 5 -9 3 -1 -8 6 -8 10 -22
9 -31 -2 -10 1 -20 6 -24 5 -3 7 -10 3 -15 -3 -5 -11 -6 -17 -2 -9 5 -9 3 -1
-8 6 -8 10 -22 9 -31 -2 -10 1 -20 6 -24 5 -3 7 -10 3 -15 -3 -5 -11 -6 -17
-2 -9 5 -9 3 -1 -8 6 -8 10 -22 9 -31 -2 -10 1 -20 6 -24 5 -3 7 -10 3 -15 -3
-5 -11 -6 -17 -2 -9 5 -9 3 -1 -8 6 -8 10 -22 9 -31 -2 -10 1 -20 6 -24 5 -3
7 -10 3 -15 -3 -5 -11 -6 -17 -2 -9 5 -9 3 -1 -8 6 -8 10 -22 9 -31 -2 -10 1
-20 6 -24 5 -3 7 -10 3 -15 -3 -5 -11 -6 -17 -2 -8 5 -8 2 0 -9 7 -8 9 -19 5
-23 -4 -5 -2 -5 4 -2 24 14 40 -41 21 -71 -5 -7 -12 -10 -17 -7 -10 6 -8 -15
3 -32 8 -13 2 -17 -17 -14 -5 1 -5 -4 1 -11 6 -7 9 -21 8 -30 -2 -10 1 -20 6
-24 5 -3 7 -10 3 -15 -3 -5 -11 -6 -17 -2 -9 5 -9 3 -1 -8 6 -8 10 -22 9 -31
-2 -10 1 -20 6 -24 5 -3 7 -10 3 -15 -3 -5 -11 -6 -17 -2 -8 5 -8 2 0 -9 7 -8
9 -19 5 -23 -4 -5 -2 -5 5 -1 14 8 28 -11 28 -39 0 -11 7 -20 15 -21 25 -1 32
7 19 22 -6 7 -15 12 -18 9 -4 -2 -8 2 -8 10 0 8 4 12 8 10 8 -6 27 16 27 30 0
16 -19 35 -29 29 -5 -3 -7 -10 -3 -15 3 -5 9 -7 13 -5 4 3 8 -1 8 -9 0 -8 -3
-13 -5 -10 -3 3 -12 -1 -21 -7 -9 -7 -13 -8 -9 -4 4 5 2 16 -5 24 -6 9 -7 13
-1 9 6 -3 11 0 11 8 0 8 -3 12 -7 10 -3 -2 -6 12 -6 30 0 18 3 32 6 30 4 -2 7
2 7 10 0 8 -3 12 -7 10 -3 -2 -6 12 -6 30 0 18 3 32 6 30 4 -2 7 2 7 10 0 8
-5 11 -11 8 -6 -4 -5 0 1 9 7 8 9 19 5 24 -4 4 0 3 9 -4 27 -20 50 18 27 45
-6 7 -14 11 -17 8 -4 -2 -8 2 -8 10 0 8 4 12 8 10 5 -4 34 22 34 30 0 1 -6 9
-14 18 -14 17 -36 13 -25 -4 3 -5 9 -7 13 -5 4 3 8 -1 8 -9 0 -8 -3 -13 -5
-10 -3 3 -12 -1 -21 -7 -9 -7 -13 -8 -9 -4 4 5 2 16 -5 24 -6 9 -7 13 -1 9 6
-3 11 0 11 8 0 8 -3 12 -7 10 -3 -2 -6 12 -6 30 0 18 3 32 6 30 4 -2 7 2 7 10
0 8 -3 12 -7 10 -3 -2 -6 12 -6 30 0 18 3 32 6 30 4 -2 7 2 7 10 0 8 -3 12 -7
10 -3 -2 -6 12 -6 30 0 18 3 32 6 30 4 -2 7 2 7 10 0 8 -3 12 -7 10 -3 -2 -6
12 -6 30 0 18 3 32 6 30 4 -2 7 2 7 10 0 8 -3 12 -7 10 -3 -2 -6 12 -6 30 0
18 3 32 6 30 4 -2 7 2 7 10 0 8 -3 12 -7 10 -3 -2 -6 12 -6 30 0 18 3 32 6 30
4 -2 7 2 7 10 0 8 -3 12 -7 10 -3 -2 -6 12 -6 30 0 18 3 32 6 30 4 -2 7 2 7
10 0 8 -3 12 -7 10 -3 -2 -6 12 -6 30 0 18 3 32 6 30 4 -2 7 2 7 10 0 8 -3 12
-7 10 -3 -2 -6 12 -6 30 0 18 3 32 6 30 4 -2 7 2 7 10 0 8 -3 12 -7 10 -3 -2
-6 12 -6 30 0 18 3 32 6 30 4 -2 7 2 7 10 0 8 -3 12 -7 10 -3 -2 -6 12 -6 30
0 18 3 32 6 30 4 -2 7 2 7 10 0 8 -3 12 -7 10 -3 -2 -6 12 -6 30 0 18 3 32 6
30 4 -2 7 2 7 10 0 8 -3 12 -7 10 -3 -2 -6 12 -6 30 0 18 3 32 6 30 4 -2 7 2
7 10 0 8 -3 12 -7 10 -3 -2 -6 12 -6 30 0 18 3 32 6 30 4 -2 7 2 7 10 0 8 -3
12 -7 10 -3 -2 -6 12 -6 30 0 18 3 32 6 30 4 -2 7 2 7 10 0 8 -3 12 -7 10 -3
-2 -6 12 -6 30 0 18 3 32 6 30 4 -2 7 2 7 10 0 8 -3 12 -7 10 -3 -2 -6 12 -6
30 0 18 3 32 6 30 4 -2 7 2 7 10 0 8 -3 12 -7 10 -3 -2 -6 12 -6 30 0 18 3 32
6 30 4 -2 7 2 7 10 0 8 -3 12 -7 10 -3 -2 -6 12 -6 30 0 18 3 32 6 30 4 -2 7
2 7 10 0 8 -3 12 -7 10 -3 -2 -6 12 -6 30 0 18 3 32 6 30 4 -2 7 2 7 10 0 8
-3 12 -7 10 -3 -2 -6 12 -6 30 0 18 3 32 6 30 4 -2 7 2 7 10 0 8 -3 12 -7 10
-3 -2 -6 12 -6 30 0 18 3 32 6 30 4 -2 7 2 7 10 0 8 -3 12 -7 10 -3 -2 -6 12
-6 30 0 18 3 32 6 30 4 -2 7 2 7 10 0 8 -3 12 -7 10 -3 -2 -6 12 -6 30 0 18 3
32 6 30 4 -2 7 2 7 10 0 8 -3 12 -7 10 -3 -2 -6 12 -6 30 0 18 3 32 6 30 4 -2
7 2 7 10 0 8 -5 11 -11 8 -6 -4 -5 0 1 9 7 8 9 19 5 24 -4 4 0 3 10 -4 17 -14
30 -4 34 26 3 15 -3 16 -11 2z m2 -2165 c0 -6 -6 -12 -12 -12 -6 0 -12 6 -12
12 0 6 6 12 12 12 6 0 12 -6 12 -12z"/>
<path d="M2296 4931 c-4 -5 -2 -12 3 -15 5 -4 12 -2 15 3 4 5 2 12 -3 15 -5 4
-12 2 -15 -3z"/>
<path d="M2275 4911 c2 -11 0 -23 -5 -26 -7 -4 -7 -34 0 -42 6 -7 6 -29 0 -38
-6 -9 -6 -28 0 -40 6 -12 6 -31 0 -40 -6 -9 -6 -28 0 -40 6 -12 6 -31 0 -40
-6 -9 -6 -28 0 -40 6 -12 6 -31 0 -40 -6 -9 -6 -28 0 -40 6 -12 6 -31 0 -40
-6 -9 -6 -28 0 -40 6 -12 6 -31 0 -40 -6 -9 -6 -28 0 -40 6 -12 6 -31 0 -40
-6 -9 -6 -28 0 -40 6 -12 6 -31 0 -40 -6 -9 -6 -28 0 -40 6 -12 6 -31 0 -40
-6 -9 -6 -28 0 -40 6 -12 6 -31 0 -40 -6 -9 -6 -28 0 -40 6 -12 6 -31 0 -40
-6 -9 -6 -28 0 -40 6 -12 6 -31 0 -40 -6 -9 -6 -28 0 -40 6 -12 6 -31 0 -40
-6 -9 -6 -28 0 -40 6 -12 6 -31 0 -40 -6 -9 -6 -28 0 -40 6 -12 6 -31 0 -40
-7 -12 -7 -26 1 -40 5 -9 5 -29 -1 -40 -6 -12 -6 -31 0 -40 6 -9 6 -28 0 -40
-6 -12 -6 -31 0 -40 6 -9 6 -28 0 -40 -6 -12 -6 -31 0 -40 6 -9 6 -28 0 -40
-6 -12 -6 -31 0 -40 6 -9 6 -28 0 -40 -6 -12 -6 -31 0 -40 6 -9 6 -28 0 -40
-6 -12 -6 -31 0 -40 6 -9 6 -28 0 -40 -6 -12 -6 -31 0 -40 6 -9 6 -28 0 -40
-6 -12 -6 -31 0 -40 6 -9 6 -31 0 -37 -1 -2 -3 -11 -5 -20 -5 -25 10 -31 26
-12 18 22 19 41 3 55 -11 9 -12 15 -2 26 17 21 18 40 2 54 -11 9 -12 15 -2 26
17 21 18 40 2 54 -11 9 -12 15 -2 26 17 21 18 40 2 54 -11 9 -12 15 -2 26 17
21 18 40 2 54 -11 9 -12 15 -2 26 17 21 18 40 2 54 -11 9 -12 15 -2 26 17 21
18 40 2 54 -11 9 -12 15 -2 26 17 21 18 40 2 54 -11 9 -12 15 -2 26 17 21 18
40 2 54 -11 9 -12 15 -2 26 17 21 18 40 2 54 -11 9 -12 15 -2 26 17 21 18 40
2 54 -11 9 -12 15 -2 26 17 21 18 40 2 54 -11 9 -12 15 -2 26 17 21 18 40 2
54 -11 9 -12 15 -2 26 17 21 18 40 2 54 -11 9 -12 15 -2 26 17 21 18 40 2 54
-11 9 -12 15 -2 26 17 21 18 40 2 54 -11 9 -12 15 -2 26 17 21 18 40 2 54 -11
9 -12 15 -2 26 17 21 18 40 2 54 -11 9 -12 15 -2 26 17 21 18 40 2 54 -11 9
-12 15 -2 26 17 21 18 40 2 54 -11 9 -12 15 -2 26 17 21 18 40 2 54 -11 9 -12
15 -2 26 17 21 18 40 2 54 -11 9 -12 15 -2 26 17 21 18 40 2 54 -11 9 -12 15
-2 26 17 21 18 40 2 54 -11 9 -12 15 -2 26 19 23 18 40 -3 59 -17 16 -18 15
-14 -5z m22 -24 c0 -8 -6 -14 -14 -14 -9 0 -10 4 -2 14 6 7 12 13 14 13 1 0 2
-6 2 -13z m0 -80 c0 -8 -6 -14 -14 -14 -9 0 -10 4 -2 14 6 7 12 13 14 13 1 0
2 -6 2 -13z m0 -80 c0 -8 -6 -14 -14 -14 -9 0 -10 4 -2 14 6 7 12 13 14 13 1
0 2 -6 2 -13z m0 -80 c0 -8 -6 -14 -14 -14 -9 0 -10 4 -2 14 6 7 12 13 14 13
1 0 2 -6 2 -13z m0 -80 c0 -8 -6 -14 -14 -14 -9 0 -10 4 -2 14 6 7 12 13 14
13 1 0 2 -6 2 -13z m0 -80 c0 -8 -6 -14 -14 -14 -9 0 -10 4 -2 14 6 7 12 13
14 13 1 0 2 -6 2 -13z m0 -80 c0 -8 -6 -14 -14 -14 -9 0 -10 4 -2 14 6 7 12
13 14 13 1 0 2 -6 2 -13z m0 -80 c0 -8 -6 -14 -14 -14 -9 0 -10 4 -2 14 6 7
12 13 14 13 1 0 2 -6 2 -13z m0 -80 c0 -8 -6 -14 -14 -14 -9 0 -10 4 -2 14 6
7 12 13 14 13 1 0 2 -6 2 -13z m0 -80 c0 -8 -6 -14 -14 -14 -9 0 -10 4 -2 14
6 7 12 13 14 13 1 0 2 -6 2 -13z m0 -80 c0 -8 -6 -14 -14 -14 -9 0 -10 4 -2
14 6 7 12 13 14 13 1 0 2 -6 2 -13z m0 -80 c0 -8 -6 -14 -14 -14 -9 0 -10 4
-2 14 6 7 12 13 14 13 1 0 2 -6 2 -13z m0 -80 c0 -8 -6 -14 -14 -14 -9 0 -10
4 -2 14 6 7 12 13 14 13 1 0 2 -6 2 -13z m0 -80 c0 -8 -6 -14 -14 -14 -9 0
-10 4 -2 14 6 7 12 13 14 13 1 0 2 -6 2 -13z m0 -80 c0 -8 -6 -14 -14 -14 -9
0 -10 4 -2 14 6 7 12 13 14 13 1 0 2 -6 2 -13z m0 -80 c0 -8 -6 -14 -14 -14
-9 0 -10 4 -2 14 6 7 12 13 14 13 1 0 2 -6 2 -13z m0 -80 c0 -8 -6 -14 -14
-14 -9 0 -10 4 -2 14 6 7 12 13 14 13 1 0 2 -6 2 -13z m0 -80 c0 -8 -6 -14
-14 -14 -9 0 -10 4 -2 14 6 7 12 13 14 13 1 0 2 -6 2 -13z m0 -80 c0 -8 -6
-14 -14 -14 -9 0 -10 4 -2 14 6 7 12 13 14 13 1 0 2 -6 2 -13z m0 -80 c0 -8
-6 -14 -14 -14 -9 0 -10 4 -2 14 6 7 12 13 14 13 1 0 2 -6 2 -13z m0 -80 c0
-8 -6 -14 -14 -14 -9 0 -10 4 -2 14 6 7 12 13 14 13 1 0 2 -6 2 -13z m0 -80
c0 -8 -6 -14 -14 -14 -9 0 -10 4 -2 14 6 7 12 13 14 13 1 0 2 -6 2 -13z m0
-80 c0 -8 -6 -14 -14 -14 -9 0 -10 4 -2 14 6 7 12 13 14 13 1 0 2 -6 2 -13z
m0 -80 c0 -8 -6 -14 -14 -14 -9 0 -10 4 -2 14 6 7 12 13 14 13 1 0 2 -6 2 -13z
m0 -80 c0 -8 -6 -14 -14 -14 -9 0 -10 4 -2 14 6 7 12 13 14 13 1 0 2 -6 2 -13z"/>
<path d="M2296 4851 c-4 -5 -2 -12 3 -15 5 -4 12 -2 15 3 4 5 2 12 -3 15 -5 4
-12 2 -15 -3z"/>
<path d="M2296 4771 c-4 -5 -2 -12 3 -15 5 -4 12 -2 15 3 4 5 2 12 -3 15 -5 4
-12 2 -15 -3z"/>
<path d="M2296 4691 c-4 -5 -2 -12 3 -15 5 -4 12 -2 15 3 4 5 2 12 -3 15 -5 4
-12 2 -15 -3z"/>
<path d="M2296 4611 c-4 -5 -2 -12 3 -15 5 -4 12 -2 15 3 4 5 2 12 -3 15 -5 4
-12 2 -15 -3z"/>
<path d="M2296 4531 c-4 -5 -2 -12 3 -15 5 -4 12 -2 15 3 4 5 2 12 -3 15 -5 4
-12 2 -15 -3z"/>
<path d="M2296 4451 c-4 -5 -2 -12 3 -15 5 -4 12 -2 15 3 4 5 2 12 -3 15 -5 4
-12 2 -15 -3z"/>
<path d="M2296 4371 c-4 -5 -2 -12 3 -15 5 -4 12 -2 15 3 4 5 2 12 -3 15 -5 4
-12 2 -15 -3z"/>
<path d="M2296 4291 c-4 -5 -2 -12 3 -15 5 -4 12 -2 15 3 4 5 2 12 -3 15 -5 4
-12 2 -15 -3z"/>
<path d="M2296 4211 c-4 -5 -2 -12 3 -15 5 -4 12 -2 15 3 4 5 2 12 -3 15 -5 4
-12 2 -15 -3z"/>
<path d="M2296 4131 c-4 -5 -2 -12 3 -15 5 -4 12 -2 15 3 4 5 2 12 -3 15 -5 4
-12 2 -15 -3z"/>
<path d="M2296 4051 c-4 -5 -2 -12 3 -15 5 -4 12 -2 15 3 4 5 2 12 -3 15 -5 4
-12 2 -15 -3z"/>
<path d="M2296 3971 c-4 -5 -2 -12 3 -15 5 -4 12 -2 15 3 4 5 2 12 -3 15 -5 4
-12 2 -15 -3z"/>
<path d="M2296 3891 c-4 -5 -2 -12 3 -15 5 -4 12 -2 15 3 4 5 2 12 -3 15 -5 4
-12 2 -15 -3z"/>
<path d="M2296 3811 c-4 -5 -2 -12 3 -15 5 -4 12 -2 15 3 4 5 2 12 -3 15 -5 4
-12 2 -15 -3z"/>
<path d="M2296 3731 c-4 -5 -2 -12 3 -15 5 -4 12 -2 15 3 4 5 2 12 -3 15 -5 4
-12 2 -15 -3z"/>
<path d="M2296 3651 c-4 -5 -2 -12 3 -15 5 -4 12 -2 15 3 4 5 2 12 -3 15 -5 4
-12 2 -15 -3z"/>
<path d="M2296 3571 c-4 -5 -2 -12 3 -15 5 -4 12 -2 15 3 4 5 2 12 -3 15 -5 4
-12 2 -15 -3z"/>
<path d="M2296 3491 c-4 -5 -2 -12 3 -15 5 -4 12 -2 15 3 4 5 2 12 -3 15 -5 4
-12 2 -15 -3z"/>
<path d="M2296 3411 c-4 -5 -2 -12 3 -15 5 -4 12 -2 15 3 4 5 2 12 -3 15 -5 4
-12 2 -15 -3z"/>
<path d="M2296 3331 c-4 -5 -2 -12 3 -15 5 -4 12 -2 15 3 4 5 2 12 -3 15 -5 4
-12 2 -15 -3z"/>
<path d="M2296 3251 c-4 -5 -2 -12 3 -15 5 -4 12 -2 15 3 4 5 2 12 -3 15 -5 4
-12 2 -15 -3z"/>
<path d="M2296 3171 c-4 -5 -2 -12 3 -15 5 -4 12 -2 15 3 4 5 2 12 -3 15 -5 4
-12 2 -15 -3z"/>
<path d="M2296 3091 c-4 -5 -2 -12 3 -15 5 -4 12 -2 15 3 4 5 2 12 -3 15 -5 4
-12 2 -15 -3z"/>
<path d="M2296 3011 c-4 -5 -2 -12 3 -15 5 -4 12 -2 15 3 4 5 2 12 -3 15 -5 4
-12 2 -15 -3z"/>
<path d="M2296 2931 c-4 -5 -2 -12 3 -15 5 -4 12 -2 15 3 4 5 2 12 -3 15 -5 4
-12 2 -15 -3z"/>
<path d="M2296 2851 c-4 -5 -2 -12 3 -15 5 -4 12 -2 15 3 4 5 2 12 -3 15 -5 4
-12 2 -15 -3z"/>
<path d="M2296 2771 c-4 -5 -2 -12 3 -15 5 -4 12 -2 15 3 4 5 2 12 -3 15 -5 4
-12 2 -15 -3z"/>
<path d="M2275 2751 c2 -11 0 -23 -5 -26 -9 -5 -8 -23 1 -40 5 -9 5 -31 -1
-37 -1 -2 -3 -11 -5 -20 -5 -25 10 -31 26 -12 18 22 19 41 3 55 -11 9 -12 15
-2 26 19 23 18 40 -3 59 -17 16 -18 15 -14 -5z m22 -24 c0 -8 -6 -14 -14 -14
-9 0 -10 4 -2 14 6 7 12 13 14 13 1 0 2 -6 2 -13z m0 -80 c0 -8 -6 -14 -14
-14 -9 0 -10 4 -2 14 6 7 12 13 14 13 1 0 2 -6 2 -13z"/>
<path d="M2296 2691 c-4 -5 -2 -12 3 -15 5 -4 12 -2 15 3 4 5 2 12 -3 15 -5 4
-12 2 -15 -3z"/>
<path d="M2296 2611 c-4 -5 -2 -12 3 -15 5 -4 12 -2 15 3 4 5 2 12 -3 15 -5 4
-12 2 -15 -3z"/>
<path d="M2296 2531 c-4 -5 -2 -12 3 -15 5 -4 12 -2 15 3 4 5 2 12 -3 15 -5 4
-12 2 -15 -3z"/>
</g>
</svg>
